<svg width="49" height="49" viewBox="0 0 49 49" fill="none" xmlns="http://www.w3.org/2000/svg">
<rect x="1" y="1" width="47" height="47" rx="23.5" stroke="#121212"/>
<path fill-rule="evenodd" clip-rule="evenodd" d="M18.8806 26.2696C18.9243 26.2844 18.9685 26.2948 19.0126 26.3012C19.0608 26.4144 19.123 26.5607 19.1955 26.7318C19.3726 27.1494 19.6112 27.7143 19.8575 28.3035C20.3597 29.5052 20.8663 30.7439 20.9782 31.0985C21.1167 31.5368 21.2631 31.8348 21.423 32.0383C21.5056 32.1435 21.6012 32.2353 21.713 32.3049C21.7693 32.3399 21.8288 32.3686 21.8909 32.39C21.8936 32.391 21.8964 32.3919 21.8991 32.3928C22.2191 32.5136 22.5109 32.4633 22.6935 32.4018C22.7913 32.3688 22.8704 32.3291 22.9264 32.2969C22.955 32.2804 22.9791 32.2651 22.9984 32.2521L23.0029 32.2491L25.8292 30.4866L29.0937 32.9894C29.1419 33.0263 29.1944 33.0573 29.25 33.0816C29.6422 33.2527 30.022 33.3124 30.3793 33.2636C30.7359 33.2149 31.0191 33.0651 31.2298 32.8964C31.4363 32.7313 31.5762 32.5463 31.6633 32.4089C31.7078 32.3387 31.7412 32.2766 31.7648 32.2291C31.7766 32.2052 31.7862 32.1846 31.7935 32.1681L31.8029 32.1463L31.8065 32.1377L31.808 32.1341L31.8087 32.1324L31.8093 32.1308C31.8264 32.0879 31.8396 32.0435 31.8486 31.9982L34.8288 16.9727C34.8383 16.9247 34.8431 16.8758 34.8431 16.8268C34.8431 16.3868 34.6773 15.9684 34.2875 15.7145C33.9543 15.4975 33.5832 15.4882 33.3486 15.506C33.0955 15.5252 32.8618 15.5877 32.705 15.6376C32.6234 15.6635 32.555 15.6886 32.5056 15.7077C32.4808 15.7173 32.4605 15.7256 32.4454 15.7319L32.434 15.7367L15.7203 22.2932L15.7181 22.294C15.7075 22.2979 15.6938 22.303 15.6775 22.3093C15.6452 22.3219 15.6018 22.3396 15.5511 22.3626C15.4524 22.4074 15.3138 22.4773 15.1716 22.5747C14.9444 22.7303 14.4219 23.1564 14.5099 23.8597C14.5801 24.4208 14.9644 24.7654 15.1986 24.9311C15.3272 25.0221 15.4494 25.0871 15.5384 25.1295C15.5796 25.1491 15.6653 25.1839 15.7025 25.1991L15.7119 25.2029L18.8806 26.2696ZM33.0189 17.1179L33.0166 17.1189C33.0083 17.1225 32.9999 17.126 32.9914 17.1293L16.2574 23.6938C16.2487 23.6972 16.2399 23.7005 16.231 23.7036L16.2217 23.7071C16.211 23.7113 16.193 23.7186 16.1704 23.7288C16.1575 23.7346 16.1441 23.741 16.1305 23.7478C16.1492 23.7584 16.1672 23.7675 16.1831 23.7751C16.1984 23.7824 16.2101 23.7874 16.2165 23.79L19.3591 24.848C19.4167 24.8674 19.4703 24.893 19.5195 24.924L29.8963 18.8495L29.906 18.8437C29.9136 18.8393 29.9235 18.8335 29.9354 18.8268C29.959 18.8135 29.9914 18.7957 30.03 18.776C30.1021 18.7394 30.2173 18.685 30.3471 18.6449C30.4375 18.6169 30.7039 18.5382 30.992 18.6306C31.1698 18.6877 31.3539 18.8103 31.4737 19.018C31.5332 19.1212 31.5649 19.2248 31.5802 19.3197C31.621 19.4692 31.6145 19.6168 31.5826 19.7442C31.5139 20.0187 31.321 20.2329 31.1455 20.3966C30.9952 20.5371 29.0498 22.4129 27.1306 24.2647C26.1736 25.1881 25.2263 26.1025 24.5182 26.7859L24.0532 27.2349L29.9251 31.7367C30.0598 31.7849 30.1394 31.7825 30.1762 31.7774C30.2201 31.7714 30.256 31.7545 30.2927 31.7252C30.3337 31.6924 30.3696 31.648 30.3965 31.6057L30.3976 31.604L33.288 17.031C33.2451 17.0413 33.2018 17.0536 33.16 17.0669C33.1126 17.082 33.0736 17.0963 33.0477 17.1064C33.0349 17.1113 33.0256 17.1151 33.0206 17.1172L33.0189 17.1179ZM24.5576 29.5118L23.3862 28.6136L23.1023 30.4193L24.5576 29.5118ZM22.3115 26.8314L23.4765 25.7067C24.1845 25.0232 25.1319 24.1088 26.0891 23.1852L27.0616 22.247L20.5415 26.0638L20.5765 26.1463C20.7542 26.5654 20.9939 27.1327 21.2415 27.7251C21.4266 28.168 21.6202 28.6344 21.7965 29.0662L22.0795 27.2658C22.1068 27.0922 22.1916 26.942 22.3115 26.8314Z" fill="#121212"/>
</svg>
