<svg width="49" height="49" viewBox="0 0 49 49" fill="none" xmlns="http://www.w3.org/2000/svg">
<rect x="1" y="1" width="47" height="47" rx="23.5" stroke="#121212"/>
<path fill-rule="evenodd" clip-rule="evenodd" d="M24.25 14.5C18.8652 14.5 14.5 18.8652 14.5 24.25C14.5 29.6348 18.8652 34 24.25 34C29.6348 34 34 29.6348 34 24.25C34 18.8652 29.6348 14.5 24.25 14.5ZM16 24.25C16 19.6937 19.6937 16 24.25 16C28.8063 16 32.5 19.6937 32.5 24.25C32.5 28.8063 28.8063 32.5 24.25 32.5C23.3927 32.5 22.566 32.3692 21.7886 32.1266C22.2112 31.463 22.5473 30.748 22.7887 29.9991L23.3053 28.0219C23.5187 28.3265 23.8048 28.5729 24.1377 28.7388C24.4705 28.9047 24.8395 28.9848 25.2112 28.9719C27.7465 28.9719 29.5278 26.6681 29.5278 23.8063C29.5278 21.0572 27.2834 19.0028 24.4037 19.0028C20.8175 19.0028 18.9115 21.4134 18.9115 24.0319C18.9115 25.255 19.5587 26.7691 20.5978 27.2559C20.7521 27.3272 20.8531 27.2559 20.8768 27.1431C20.9006 27.0304 21.0429 26.461 21.1083 26.1995C21.1185 26.1581 21.1186 26.1143 21.1082 26.0729C21.0979 26.0315 21.0776 25.9933 21.049 25.9616C20.6565 25.4085 20.4487 24.7457 20.4553 24.0675C20.4532 23.5807 20.55 23.0986 20.7396 22.6503C20.9293 22.202 21.208 21.7968 21.5588 21.4593C21.9096 21.1218 22.3253 20.859 22.7806 20.6868C23.2359 20.5146 23.7214 20.4366 24.2078 20.4575C24.6633 20.4309 25.1194 20.4995 25.5469 20.6589C25.9745 20.8184 26.3641 21.0652 26.6909 21.3836C27.0177 21.7021 27.2746 22.0852 27.4451 22.5084C27.6156 22.9317 27.696 23.3858 27.6812 23.8419C27.6812 26.0863 26.5412 27.6478 25.0687 27.6478C24.8785 27.6624 24.6875 27.631 24.512 27.5562C24.3365 27.4813 24.1817 27.3653 24.0605 27.2179C23.9393 27.0706 23.8555 26.8962 23.816 26.7095C23.7765 26.5229 23.7826 26.3294 23.8337 26.1456C23.9181 25.7954 24.0295 25.4347 24.138 25.0832C24.3349 24.4455 24.5225 23.8381 24.5225 23.3788C24.543 23.2296 24.5311 23.0777 24.4875 22.9335C24.4439 22.7894 24.3696 22.6564 24.2698 22.5436C24.17 22.4308 24.047 22.3409 23.9092 22.2801C23.7714 22.2193 23.6221 22.189 23.4715 22.1913C22.6403 22.1913 21.9693 23.0581 21.9693 24.21C21.9631 24.6171 22.0399 25.0211 22.195 25.3975L21.2153 29.5538C21.0953 30.3391 21.095 31.1382 21.2145 31.9236C20.5639 31.6661 19.9539 31.3282 19.3967 30.9222C18.4196 30.2084 17.6032 29.2848 17.0129 28.2093C16.7807 27.7862 16.5871 27.3462 16.433 26.8946C16.1522 26.0644 16 25.175 16 24.25Z" fill="#121212"/>
</svg>
