<svg width="49" height="49" viewBox="0 0 49 49" fill="none" xmlns="http://www.w3.org/2000/svg">
<rect x="1" y="1" width="47" height="47" rx="23.5" stroke="#121212"/>
<path fill-rule="evenodd" clip-rule="evenodd" d="M22.7377 16.0377C23.7223 15.0531 25.0576 14.5 26.45 14.5H29.15C29.5642 14.5 29.9 14.8358 29.9 15.25V18.85C29.9 19.2642 29.5642 19.6 29.15 19.6H26.45C26.4102 19.6 26.3721 19.6158 26.3439 19.6439C26.3158 19.6721 26.3 19.7102 26.3 19.75V21.7H29.15C29.381 21.7 29.599 21.8064 29.7412 21.9884C29.8833 22.1705 29.9336 22.4078 29.8776 22.6319L28.9776 26.2319C28.8941 26.5658 28.5942 26.8 28.25 26.8H26.3V33.25C26.3 33.6642 25.9642 34 25.55 34H21.95C21.5358 34 21.2 33.6642 21.2 33.25V26.8H19.25C18.8358 26.8 18.5 26.4642 18.5 26.05V22.45C18.5 22.0358 18.8358 21.7 19.25 21.7H21.2V19.75C21.2 18.3576 21.7531 17.0223 22.7377 16.0377ZM26.45 16C25.4554 16 24.5016 16.3951 23.7983 17.0983C23.0951 17.8016 22.7 18.7554 22.7 19.75V22.45C22.7 22.8642 22.3642 23.2 21.95 23.2H20V25.3H21.95C22.3642 25.3 22.7 25.6358 22.7 26.05V32.5H24.8V26.05C24.8 25.6358 25.1358 25.3 25.55 25.3H27.6644L28.1894 23.2H25.55C25.1358 23.2 24.8 22.8642 24.8 22.45V19.75C24.8 19.3124 24.9738 18.8927 25.2833 18.5833C25.5927 18.2738 26.0124 18.1 26.45 18.1H28.4V16H26.45Z" fill="#121212"/>
</svg>
