<svg width="49" height="49" viewBox="0 0 49 49" fill="none" xmlns="http://www.w3.org/2000/svg">
<rect x="1" y="1" width="47" height="47" rx="23.5" stroke="#121212"/>
<path fill-rule="evenodd" clip-rule="evenodd" d="M27.2715 15.5809C27.7799 15.4939 28.3492 15.4648 28.885 15.5554C29.8418 15.7173 30.7257 16.162 31.4244 16.8288C31.8811 16.8391 32.3299 16.7492 32.727 16.6209C33.0631 16.5123 33.347 16.3813 33.546 16.2776C33.6449 16.2261 33.7213 16.1821 33.771 16.1524C33.7958 16.1375 33.8138 16.1263 33.8245 16.1195L33.8341 16.1134C34.1309 15.9157 34.5261 15.9542 34.779 16.2057C35.0319 16.4573 35.0726 16.8522 34.8764 17.1501C34.6687 17.4654 34.3803 18.0275 34.0573 18.6572C34.0065 18.7562 33.9548 18.8569 33.9025 18.9586C33.7172 19.3186 33.5272 19.6824 33.3501 19.9945C33.2389 20.1905 33.12 20.3895 33.0001 20.5614V20.8352C33.0077 21.8408 32.8924 22.8412 32.6583 23.8144C32.511 24.4268 32.3167 25.0283 32.0765 25.6137C31.4541 27.1304 30.5357 28.5078 29.3749 29.6656C28.2142 30.8233 26.8344 31.7382 25.3162 32.3567C23.7992 32.9747 22.1745 33.2845 20.5367 33.2681C18.1623 33.2701 15.838 32.5861 13.8433 31.2982C13.5495 31.1085 13.4258 30.7409 13.5451 30.4121C13.6644 30.0834 13.9951 29.8808 14.3422 29.9238C14.6426 29.9609 14.945 29.9791 15.2476 29.9781C16.3351 29.975 17.4018 29.7348 18.3757 29.2821C18.0661 29.1412 17.7706 28.9675 17.4944 28.7627C16.6827 28.1608 16.0788 27.3208 15.7667 26.3597C15.6856 26.1099 15.7411 25.8359 15.9129 25.6374C15.916 25.6338 15.9191 25.6303 15.9222 25.6268C15.7387 25.4631 15.567 25.285 15.4089 25.0933C14.6975 24.2311 14.3059 23.1497 14.3001 22.032L14.3001 22.0281L14.3001 21.9781C14.3001 21.7122 14.4408 21.4662 14.67 21.3315C14.7281 21.2973 14.7897 21.2716 14.8531 21.2544C14.5147 20.5793 14.3388 19.8339 14.3401 19.0776C14.3397 18.2208 14.5635 17.3789 14.9892 16.6354C15.1121 16.4207 15.333 16.2805 15.5795 16.2605C15.826 16.2405 16.0666 16.3434 16.2224 16.5354C17.185 17.7215 18.3863 18.6917 19.7482 19.3832C20.4484 19.7386 21.1829 20.0163 21.9387 20.2128C22.3625 20.3229 22.7929 20.4075 23.2277 20.4659C23.2085 19.7427 23.3513 19.0198 23.6511 18.3519C24.0907 17.372 24.8432 16.5659 25.7904 16.0598C26.1916 15.8454 26.7241 15.6747 27.2715 15.5809ZM15.9934 23.1284C16.123 23.4933 16.3159 23.8357 16.5659 24.1388C17.0572 24.7343 17.7392 25.1419 18.4964 25.2925C18.8337 25.3596 19.0821 25.6475 19.0992 25.9909C19.1162 26.3344 18.8974 26.6455 18.5684 26.7456C18.2959 26.8285 18.0168 26.8863 17.7344 26.9184C17.921 27.1589 18.1405 27.3743 18.3879 27.5578C18.9491 27.9739 19.626 28.2048 20.3245 28.2182C20.6414 28.2243 20.9203 28.429 21.0211 28.7295C21.1219 29.03 21.023 29.3615 20.7739 29.5575C19.7247 30.383 18.5115 30.9587 17.2259 31.2526C18.2914 31.5938 19.4089 31.7695 20.5392 31.7681L20.5479 31.7681C21.9879 31.783 23.4165 31.5109 24.7502 30.9676C26.0839 30.4242 27.296 29.6206 28.3156 28.6036C29.3353 27.5865 30.142 26.3765 30.6888 25.0442C30.8998 24.53 31.0705 24.0015 31.1999 23.4636C31.4057 22.6079 31.507 21.7282 31.5001 20.8439L31.5001 20.8381V20.3081C31.5001 20.1262 31.5661 19.9506 31.686 19.8138C31.7553 19.7347 31.8764 19.5522 32.0455 19.2543C32.2061 18.9712 32.3839 18.6313 32.5688 18.2721C32.58 18.2504 32.5912 18.2285 32.6025 18.2066C32.1229 18.3107 31.5793 18.3653 31.0095 18.3037C30.829 18.2842 30.6618 18.1999 30.5387 18.0665C30.0358 17.5212 29.3662 17.1582 28.6348 17.0344C28.3102 16.9795 27.9179 16.9921 27.5248 17.0594C27.0977 17.1326 26.726 17.2606 26.4973 17.3828C25.843 17.7323 25.3233 18.2892 25.0196 18.966C24.7159 19.6428 24.6454 20.4012 24.8192 21.1224C24.8746 21.3523 24.8183 21.5948 24.6674 21.7769C24.5164 21.9589 24.2884 22.0591 24.0522 22.0471C23.2088 22.0045 22.3743 21.8758 21.5614 21.6645C20.7015 21.441 19.8658 21.1251 19.0692 20.7207C17.8964 20.1253 16.8284 19.3482 15.9035 18.4205C15.8613 18.6361 15.8399 18.8561 15.8401 19.0776L15.8401 19.0795C15.839 19.6302 15.9742 20.1726 16.2335 20.6585C16.4928 21.1443 16.8682 21.5585 17.3263 21.8642C17.6044 22.0497 17.7261 22.3968 17.6248 22.7153C17.5236 23.0338 17.2238 23.2469 16.8897 23.2378C16.5871 23.2296 16.287 23.1928 15.9934 23.1284Z" fill="#121212"/>
</svg>
