<svg width="49" height="49" viewBox="0 0 49 49" fill="none" xmlns="http://www.w3.org/2000/svg">
<rect x="1" y="1" width="47" height="47" rx="23.5" stroke="#121212"/>
<path d="M28.9421 19.9576C28.9421 19.4053 29.3898 18.9576 29.9421 18.9576C30.4944 18.9576 30.9421 19.4053 30.9421 19.9576C30.9421 20.5099 30.4944 20.9576 29.9421 20.9576C29.3898 20.9576 28.9421 20.5099 28.9421 19.9576Z" fill="#121212"/>
<path fill-rule="evenodd" clip-rule="evenodd" d="M24.9421 20.2076C22.3187 20.2076 20.1921 22.3342 20.1921 24.9576C20.1921 27.5809 22.3187 29.7076 24.9421 29.7076C27.5654 29.7076 29.6921 27.5809 29.6921 24.9576C29.6921 22.3342 27.5654 20.2076 24.9421 20.2076ZM21.6921 24.9576C21.6921 23.1626 23.1472 21.7076 24.9421 21.7076C26.737 21.7076 28.1921 23.1626 28.1921 24.9576C28.1921 26.7525 26.737 28.2076 24.9421 28.2076C23.1472 28.2076 21.6921 26.7525 21.6921 24.9576Z" fill="#121212"/>
<path fill-rule="evenodd" clip-rule="evenodd" d="M30.2003 15.7906C26.7338 15.4031 23.1504 15.4031 19.6838 15.7906C17.6718 16.0155 16.0475 17.6005 15.8109 19.623C15.3964 23.1673 15.3964 26.7478 15.8109 30.2921C16.0475 32.3147 17.6718 33.8997 19.6838 34.1245C23.1504 34.512 26.7338 34.512 30.2003 34.1245C32.2124 33.8997 33.8367 32.3147 34.0733 30.2921C34.4878 26.7478 34.4878 23.1673 34.0733 19.623C33.8367 17.6005 32.2124 16.0155 30.2003 15.7906ZM19.8505 17.2813C23.2063 16.9062 26.6779 16.9062 30.0337 17.2813C31.3638 17.43 32.4293 18.4796 32.5834 19.7972C32.9844 23.2258 32.9844 26.6894 32.5834 30.1179C32.4293 31.4356 31.3638 32.4852 30.0337 32.6338C26.6779 33.0089 23.2063 33.0089 19.8505 32.6338C18.5203 32.4852 17.4549 31.4356 17.3007 30.1179C16.8998 26.6894 16.8998 23.2258 17.3007 19.7972C17.4549 18.4796 18.5203 17.43 19.8505 17.2813Z" fill="#121212"/>
</svg>
